<?xml version="1.0" encoding="UTF-8" standalone="no"?>
<!-- Created with Inkscape (http://www.inkscape.org/) -->

<svg
   xmlns:dc="http://purl.org/dc/elements/1.1/"
   xmlns:cc="http://creativecommons.org/ns#"
   xmlns:rdf="http://www.w3.org/1999/02/22-rdf-syntax-ns#"
   xmlns:svg="http://www.w3.org/2000/svg"
   xmlns="http://www.w3.org/2000/svg"
   xmlns:sodipodi="http://sodipodi.sourceforge.net/DTD/sodipodi-0.dtd"
   xmlns:inkscape="http://www.inkscape.org/namespaces/inkscape"
   width="558.45703"
   height="130.20927"
   id="svg2"
   version="1.1"
   inkscape:version="0.48.4 r9939"
   sodipodi:docname="range.svg">
  <defs
     id="defs4" />
  <sodipodi:namedview
     id="base"
     pagecolor="#ffffff"
     bordercolor="#666666"
     borderopacity="1.0"
     inkscape:pageopacity="0.0"
     inkscape:pageshadow="2"
     inkscape:zoom="1"
     inkscape:cx="146.46943"
     inkscape:cy="167.08395"
     inkscape:document-units="px"
     inkscape:current-layer="layer1"
     showgrid="false"
     fit-margin-top="0"
     fit-margin-left="0"
     fit-margin-right="0"
     fit-margin-bottom="0"
     inkscape:window-width="1366"
     inkscape:window-height="709"
     inkscape:window-x="-4"
     inkscape:window-y="-4"
     inkscape:window-maximized="1" />
  <metadata
     id="metadata7">
    <rdf:RDF>
      <cc:Work
         rdf:about="">
        <dc:format>image/svg+xml</dc:format>
        <dc:type
           rdf:resource="http://purl.org/dc/dcmitype/StillImage" />
        <dc:title />
      </cc:Work>
    </rdf:RDF>
  </metadata>
  <g
     inkscape:label="Layer 1"
     inkscape:groupmode="layer"
     id="layer1"
     transform="translate(-114.64007,-187.71931)">
    <path
       style="fill:none;stroke:#000000;stroke-width:0.66381508px;stroke-linecap:butt;stroke-linejoin:miter;stroke-opacity:1"
       d="m 564.75198,261.36378 -19.3463,-20.56993 -10.05892,21.67799"
       id="path3023-1"
       inkscape:connector-curvature="0"
       sodipodi:nodetypes="ccc" />
    <path
       style="fill:none;stroke:#000000;stroke-width:0.66381508px;stroke-linecap:butt;stroke-linejoin:miter;stroke-opacity:1"
       d="m 520.06246,195.09229 7.89001,27.84318 -22.14952,28.88597 31.3766,10.51384 26.62454,-1.07746"
       id="path3021-8"
       inkscape:connector-curvature="0"
       sodipodi:nodetypes="ccccc" />
    <text
       xml:space="preserve"
       style="font-size:40px;font-style:normal;font-variant:normal;font-weight:normal;font-stretch:normal;line-height:125%;letter-spacing:0px;word-spacing:0px;fill:#808080;fill-opacity:1;stroke:none;font-family:DejaVu Sans;-inkscape-font-specification:DejaVu Sans"
       x="297.39203"
       y="235.21931"
       id="text2985"
       sodipodi:linespacing="125%"><tspan
         sodipodi:role="line"
         id="tspan2987"
         x="297.39203"
         y="235.21931"
         style="font-size:64px;font-style:normal;font-variant:normal;font-weight:normal;font-stretch:normal;fill:#808080;fill-opacity:1;font-family:DejaVu Sans;-inkscape-font-specification:DejaVu Sans"><tspan
           style="fill:#999999"
           id="tspan3007">Ne</tspan><tspan
           style="fill:#b3b3b3"
           id="tspan3009">Gen</tspan></tspan></text>
    <text
       xml:space="preserve"
       style="font-size:40px;font-style:normal;font-variant:normal;font-weight:normal;font-stretch:normal;line-height:125%;letter-spacing:0px;word-spacing:0px;fill:#000000;fill-opacity:1;stroke:none;font-family:Arial;-inkscape-font-specification:Arial"
       x="212.71429"
       y="317.36218"
       id="text2989"
       sodipodi:linespacing="125%"><tspan
         sodipodi:role="line"
         id="tspan2991"
         x="212.71429"
         y="317.36218"
         style="font-style:normal;font-variant:normal;font-weight:normal;font-stretch:normal;font-family:DejaVu Sans;-inkscape-font-specification:DejaVu Sans"><tspan
   style="fill:#808080"
   id="tspan2995">Ne</tspan>twork <tspan
   style="fill:#b3b3b3"
   id="tspan2997">Gen</tspan>erator</tspan></text>
    <path
       style="fill:none;stroke:#000000;stroke-width:0.66381508px;stroke-linecap:butt;stroke-linejoin:miter;stroke-opacity:1"
       d="m 504.33414,251.31565 42.27301,-9.96333 -19.65537,-17.21288"
       id="path3023"
       inkscape:connector-curvature="0"
       sodipodi:nodetypes="ccc" />
    <path
       sodipodi:type="arc"
       style="fill:#9eabff;fill-opacity:1;stroke:#000000;stroke-width:1;stroke-linecap:round;stroke-linejoin:miter;stroke-miterlimit:4;stroke-opacity:1;stroke-dasharray:none"
       id="path3025"
       sodipodi:cx="551.07141"
       sodipodi:cy="172.00504"
       sodipodi:rx="9.6494684"
       sodipodi:ry="9.6494684"
       d="m 560.72088,172.00504 c 0,5.32925 -4.32021,9.64946 -9.64947,9.64946 -5.32925,0 -9.64947,-4.32021 -9.64947,-9.64946 0,-5.32926 4.32022,-9.64947 9.64947,-9.64947 5.32926,0 9.64947,4.32021 9.64947,9.64947 z"
       transform="matrix(0.66381505,0,0,0.66381505,179.13199,126.46155)" />
    <path
       sodipodi:type="arc"
       style="fill:#9eabff;fill-opacity:1;stroke:#000000;stroke-width:1;stroke-linecap:round;stroke-linejoin:miter;stroke-miterlimit:4;stroke-opacity:1;stroke-dasharray:none"
       id="path3025-1"
       sodipodi:cx="551.07141"
       sodipodi:cy="172.00504"
       sodipodi:rx="9.6494684"
       sodipodi:ry="9.6494684"
       d="m 560.72088,172.00504 c 0,5.32925 -4.32021,9.64946 -9.64947,9.64946 -5.32925,0 -9.64947,-4.32021 -9.64947,-9.64946 0,-5.32926 4.32022,-9.64947 9.64947,-9.64947 5.32926,0 9.64947,4.32021 9.64947,9.64947 z"
       transform="matrix(0.66381505,0,0,0.66381505,155.28683,80.84198)" />
    <path
       sodipodi:type="arc"
       style="fill:#9eabff;fill-opacity:1;stroke:#000000;stroke-width:1;stroke-linecap:round;stroke-linejoin:miter;stroke-miterlimit:4;stroke-opacity:1;stroke-dasharray:none"
       id="path3025-7"
       sodipodi:cx="551.07141"
       sodipodi:cy="172.00504"
       sodipodi:rx="9.6494684"
       sodipodi:ry="9.6494684"
       d="m 560.72088,172.00504 c 0,5.32925 -4.32021,9.64946 -9.64947,9.64946 -5.32925,0 -9.64947,-4.32021 -9.64947,-9.64946 0,-5.32926 4.32022,-9.64947 9.64947,-9.64947 5.32926,0 9.64947,4.32021 9.64947,9.64947 z"
       transform="matrix(0.66381505,0,0,0.66381505,198.00615,147.50495)" />
    <path
       sodipodi:type="arc"
       style="fill:#9eabff;fill-opacity:1;stroke:#000000;stroke-width:1;stroke-linecap:round;stroke-linejoin:miter;stroke-miterlimit:4;stroke-opacity:1;stroke-dasharray:none"
       id="path3025-4"
       sodipodi:cx="551.07141"
       sodipodi:cy="172.00504"
       sodipodi:rx="9.6494684"
       sodipodi:ry="9.6494684"
       d="m 560.72088,172.00504 c 0,5.32925 -4.32021,9.64946 -9.64947,9.64946 -5.32925,0 -9.64947,-4.32021 -9.64947,-9.64946 0,-5.32926 4.32022,-9.64947 9.64947,-9.64947 5.32926,0 9.64947,4.32021 9.64947,9.64947 z"
       transform="matrix(0.66381505,0,0,0.66381505,170.25213,149.7846)" />
    <path
       sodipodi:type="arc"
       style="fill:#9eabff;fill-opacity:1;stroke:#000000;stroke-width:1;stroke-linecap:round;stroke-linejoin:miter;stroke-miterlimit:4;stroke-opacity:1;stroke-dasharray:none"
       id="path3025-9"
       sodipodi:cx="551.07141"
       sodipodi:cy="172.00504"
       sodipodi:rx="9.6494684"
       sodipodi:ry="9.6494684"
       d="m 560.72088,172.00504 c 0,5.32925 -4.32021,9.64946 -9.64947,9.64946 -5.32925,0 -9.64947,-4.32021 -9.64947,-9.64946 0,-5.32926 4.32022,-9.64947 9.64947,-9.64947 5.32926,0 9.64947,4.32021 9.64947,9.64947 z"
       transform="matrix(0.66381505,0,0,0.66381505,140.42126,136.66197)" />
    <path
       sodipodi:type="arc"
       style="fill:#9eabff;fill-opacity:1;stroke:#000000;stroke-width:1;stroke-linecap:round;stroke-linejoin:miter;stroke-miterlimit:4;stroke-opacity:1;stroke-dasharray:none"
       id="path3025-48"
       sodipodi:cx="551.07141"
       sodipodi:cy="172.00504"
       sodipodi:rx="9.6494684"
       sodipodi:ry="9.6494684"
       d="m 560.72088,172.00504 c 0,5.32925 -4.32021,9.64946 -9.64947,9.64946 -5.32925,0 -9.64947,-4.32021 -9.64947,-9.64946 0,-5.32926 4.32022,-9.64947 9.64947,-9.64947 5.32926,0 9.64947,4.32021 9.64947,9.64947 z"
       transform="matrix(0.66381505,0,0,0.66381505,160.61862,109.37675)" />
  </g>
</svg>
